Coordinates
version=1
nRows=17
nColumns=40
inDegrees=yes

Units are S.I. units (second, meters, Newtons, ...)
Angles are in degrees.

endheader
time	pelvis_tilt	pelvis_list	pelvis_rotation	pelvis_tx	pelvis_ty	pelvis_tz	hip_flexion_r	hip_adduction_r	hip_rotation_r	knee_angle_r	knee_angle_r_beta	ankle_angle_r	subtalar_angle_r	mtp_angle_r	hip_flexion_l	hip_adduction_l	hip_rotation_l	knee_angle_l	knee_angle_l_beta	ankle_angle_l	subtalar_angle_l	mtp_angle_l	lumbar_extension	lumbar_bending	lumbar_rotation	arm_flex_r	arm_add_r	arm_rot_r	elbow_flex_r	pro_sup_r	wrist_flex_r	wrist_dev_r	arm_flex_l	arm_add_l	arm_rot_l	elbow_flex_l	pro_sup_l	wrist_flex_l	wrist_dev_l
     16.70250000	     -5.51996967	     -4.33221403	      3.74605609	      0.96363520	      0.92219566	      0.50913027	      3.40186819	      0.34271334	    -11.38778414	     19.29488871	     19.29488871	     19.59871735	      8.86838610	     -1.20152208	     26.10425778	     -9.12236609	      1.15384360	     24.45823083	     24.45823083	      6.69738166	    -10.68762361	      5.43156955	     -8.81342498	      5.71379258	      5.32307740	     54.69686293	    -13.51254750	     -0.63296237	     68.54706195	     44.90210402	      0.00000000	      0.00000000	     -3.08678757	    -12.59458799	     17.30425493	     33.33384266	     45.63282434	      0.00000000	      0.00000000
     16.72371429	     -5.65719646	     -4.40695272	      3.04281280	      0.96493428	      0.92318982	      0.50343705	      3.00992403	     -0.07546304	    -11.30237909	     18.90016146	     18.90016146	     19.23950991	      9.92906122	     -1.05552838	     25.75712174	     -9.02727548	      0.62966074	     24.63680567	     24.63680567	      7.03317069	    -11.09220533	      5.32075669	     -8.69292359	      5.79237413	      5.71350299	     53.13420497	    -13.85898427	     -0.68997165	     66.91052456	     44.96070575	      0.00000000	      0.00000000	     -1.41881259	    -12.89922141	     16.79948024	     33.88362614	     45.71801788	      0.00000000	      0.00000000
     16.74492857	     -5.79854241	     -4.47457000	      2.30714384	      0.96615820	      0.92402970	      0.49786104	      2.79784434	     -0.49558457	    -10.95789331	     18.77631622	     18.77631622	     18.87084732	     10.57400214	     -0.94011284	     25.43444447	     -8.94270777	      0.10814503	     24.85422160	     24.85422160	      7.40227569	    -11.42801596	      5.21563913	     -8.60913585	      5.82457269	      5.66865741	     51.29986927	    -13.65390587	     -0.56566662	     65.65011813	     44.99341563	      0.00000000	      0.00000000	      0.07534500	    -13.28416689	     16.49157811	     34.32737126	     45.77642065	      0.00000000	      0.00000000
     16.76614286	     -5.84942948	     -4.52709337	      1.54342865	      0.96751835	      0.92494671	      0.49223909	      2.58572623	     -1.03655935	    -10.96292171	     18.85434599	     18.85434599	     18.51459784	     11.80783773	     -0.96859919	     24.92802914	     -8.88293879	     -0.63146167	     24.95831023	     24.95831023	      7.91699427	    -11.51854539	      5.22234663	     -8.47763700	      5.85866113	      6.15163745	     49.71799254	    -13.95992845	     -0.93279513	     62.42207529	     45.11949229	      0.00000000	      0.00000000	      1.99827092	    -13.38854318	     15.79847100	     34.74234382	     45.88407843	      0.00000000	      0.00000000
     16.78735714	     -5.94784010	     -4.54006464	      0.80643556	      0.96879079	      0.92567982	      0.48663524	      2.64048448	     -1.60007372	    -10.61452113	     19.27463706	     19.27463706	     18.18986660	     12.44007238	     -1.10535225	     24.47480775	     -8.75608010	     -1.33967382	     25.03653512	     25.03653512	      8.43234533	    -11.60092605	      5.21839153	     -8.31151984	      5.83802092	      6.11086239	     47.79496475	    -13.75532729	     -1.07140456	     59.76297483	     45.21402137	      0.00000000	      0.00000000	      3.65593948	    -13.59027229	     15.23547444	     35.00503888	     45.96921471	      0.00000000	      0.00000000
     16.80857143	     -5.89160560	     -4.74761434	      0.13000172	      0.97012250	      0.92651164	      0.48117808	      2.57422040	     -1.90462451	    -10.13395788	     19.74159274	     19.74159274	     17.81801758	     12.74189770	     -1.13336033	     23.93309251	     -8.78873369	     -1.79004540	     25.20961888	     25.20961888	      8.89450923	    -11.93946509	      5.10116024	     -8.40943355	      6.06201607	      5.58452411	     45.40589110	    -13.13113448	     -0.81490365	     58.67505410	     45.23056064	      0.00000000	      0.00000000	      5.11629762	    -13.97807644	     15.03328405	     35.39292852	     46.01287506	      0.00000000	      0.00000000
     16.82978571	     -5.95380518	     -4.63424993	     -0.63463399	      0.97124105	      0.92701900	      0.47569642	      3.09528720	     -2.68633912	     -9.64878054	     20.98453596	     20.98453596	     17.16889822	     13.02356598	     -2.69628238	     23.43737258	     -8.54789663	     -2.64111227	     25.29424324	     25.29424324	      9.63469372	    -11.81016166	      5.38685093	     -8.10698662	      5.86791595	      5.51099114	     43.85502523	    -12.69787909	     -1.51408659	     52.99945255	     45.46164325	      0.00000000	      0.00000000	      7.12796375	    -13.87098091	     14.18353187	     34.70962953	     46.10934260	      0.00000000	      0.00000000
     16.85100000	     -5.91630681	     -4.62413179	     -1.34146409	      0.97224845	      0.92753279	      0.47032828	      3.74402664	     -3.33779459	     -8.96653840	     22.63508054	     22.63508054	     16.76038035	     12.96022827	     -3.38045007	     22.87707365	     -8.35126426	     -3.23677657	     25.37438995	     25.37438995	     10.14215050	    -12.05252500	      5.29007349	     -8.10830424	      5.82749254	      5.35328145	     40.99816403	    -12.67382917	     -1.39631324	     51.27686214	     45.50410992	      0.00000000	      0.00000000	      8.78280147	    -14.11321611	     13.87313181	     35.35375749	     46.16449824	      0.00000000	      0.00000000
     16.87221429	     -5.81782517	     -4.62867051	     -2.01224545	      0.97314558	      0.92794033	      0.46504364	      4.59964801	     -3.98671156	     -8.21004764	     24.73209487	     24.73209487	     16.21342558	     12.67866739	     -4.35015144	     22.31223774	     -8.14616750	     -3.76975362	     25.52166244	     25.52166244	     10.64583338	    -12.36869160	      5.20396759	     -8.15559088	      5.79014319	      5.16593686	     38.01617323	    -12.68473459	     -1.27493057	     49.32364592	     45.55393434	      0.00000000	      0.00000000	     10.50641909	    -14.31074448	     13.63970606	     35.88788462	     46.21122683	      0.00000000	      0.00000000
     16.89342857	     -5.73151946	     -4.73571964	     -2.66875855	      0.97374244	      0.92816262	      0.45993439	      5.59010927	     -4.41951250	     -7.16710219	     26.81277299	     26.81277299	     14.12093635	     11.61150893	     -9.32293784	     21.84677472	     -7.99617562	     -4.02951177	     25.77199235	     25.77199235	     11.30476836	    -12.91882855	      5.54757810	     -8.12843114	      5.92485869	      5.13885569	     35.56603349	    -12.59063691	     -1.57799859	     45.05063378	     45.71169033	      0.00000000	      0.00000000	     12.70284128	    -14.16219929	     13.55192496	     35.32552363	     46.20602523	      0.00000000	      0.00000000
     16.91464286	     -5.60175923	     -4.71683156	     -3.28711507	      0.97412692	      0.92811234	      0.45493015	      7.06912035	     -5.08458705	     -6.19442541	     29.96473890	     29.96473890	     13.26580789	     10.93475602	    -10.64867808	     21.38657638	     -7.73707092	     -4.42910789	     26.05691661	     26.05691661	     11.82558733	    -13.32351585	      5.41558412	     -8.27920129	      5.90478473	      4.69467312	     32.32704915	    -12.50009180	     -1.48059954	     43.42987398	     45.74725297	      0.00000000	      0.00000000	     14.28861972	    -14.48591025	     13.30121494	     36.02071345	     46.25205547	      0.00000000	      0.00000000
     16.93585714	     -5.47878378	     -4.82728983	     -3.86434537	      0.97421027	      0.92779493	      0.45021646	      8.56361586	     -5.38202797	     -4.85459799	     32.82073494	     32.82073494	     10.21661966	      8.66605061	    -17.43728006	     21.09626044	     -7.57551762	     -4.54586818	     26.58201358	     26.58201358	     12.53686800	    -14.00459945	      5.86080889	     -8.38878932	      6.04818393	      4.53231894	     29.37682387	    -12.48191854	     -1.98734310	     40.10286361	     45.87437258	      0.00000000	      0.00000000	     16.20551771	    -14.50995972	     12.92838194	     36.31605005	     46.25859015	      0.00000000	      0.00000000
     16.95707143	     -5.33565897	     -4.86532038	     -4.41226307	      0.97400826	      0.92711709	      0.44565238	     10.56227840	     -5.82722442	     -3.65282231	     36.78044765	     36.78044765	      8.97792279	      7.38672871	    -18.29229970	     20.84414644	     -7.35341423	     -4.72563432	     27.14938420	     27.14938420	     13.08151815	    -14.64672134	      5.70937464	     -8.60706088	      6.11958640	      4.23175420	     25.96072418	    -12.63586309	     -1.92544755	     38.33344884	     45.91568258	      0.00000000	      0.00000000	     17.87203314	    -14.76683558	     12.57740435	     37.21321062	     46.31738023	      0.00000000	      0.00000000
     16.97828571	     -5.22583573	     -4.99129994	     -4.92310719	      0.97341817	      0.92610686	      0.44147984	     12.72611116	     -5.96634373	     -2.23647668	     40.84940593	     40.84940593	      7.39280830	      5.54673423	    -19.11229997	     20.77107815	     -7.23281625	     -4.74497813	     27.90421733	     27.90421733	     13.62016266	    -15.41084553	      5.66987491	     -8.82748519	      6.28752364	      4.09541484	     22.49660309	    -12.93588813	     -1.91290942	     36.28469006	     45.97089769	      0.00000000	      0.00000000	     19.61177860	    -14.91939427	     12.11065644	     38.21609894	     46.38967462	      0.00000000	      0.00000000
     16.99950000	     -5.05669938	     -5.18573258	     -5.37729386	      0.97263659	      0.92486543	      0.43766059	     14.86428919	     -5.85339853	     -0.77585986	     44.89911254	     44.89911254	      5.65749254	      3.40796223	    -19.59121680	     20.74641511	     -7.19372398	     -4.69318265	     28.84933413	     28.84933413	     14.32293980	    -16.09508807	      5.75134634	     -9.14829824	      6.52003436	      3.99019597	     19.05589530	    -13.21366526	     -1.98037965	     34.06460357	     46.03840721	      0.00000000	      0.00000000	     21.41189617	    -15.09234287	     11.39315545	     39.33946271	     46.48724910	      0.00000000	      0.00000000
     17.02071429	     -4.90749470	     -5.33597503	     -5.81860703	      0.97157100	      0.92341244	      0.43418439	     17.07020221	     -5.67889107	      0.57876972	     48.91103230	     48.91103230	      4.19729448	      1.60226399	    -18.85350106	     20.85729107	     -7.15649678	     -4.70949604	     30.00104460	     30.00104460	     15.67705167	    -16.39269598	      7.26731658	     -9.48024471	      6.71548480	      3.46005520	     16.25668418	    -13.05745649	     -2.93062938	     30.95657137	     46.20283177	      0.00000000	      0.00000000	     22.78510956	    -15.16598232	      8.52020847	     40.78755439	     46.75227985	      0.00000000	      0.00000000
     17.04192857	     -4.76337007	     -5.54663516	     -6.22393659	      0.97024424	      0.92185743	      0.43118967	     19.20832132	     -5.28646327	      1.82197692	     52.64002266	     52.64002266	      2.91391979	     -0.16070903	    -17.64440779	     20.94505877	     -7.22581611	     -4.73448400	     31.00548933	     31.00548933	     16.23611502	    -16.88999780	      7.12124498	     -9.87266070	      6.96263582	      3.34780408	     12.77238332	    -13.35150531	     -3.01523766	     29.21834523	     46.25233577	      0.00000000	      0.00000000	     24.51378106	    -15.39383128	      7.68032855	     42.21063499	     46.85420943	      0.00000000	      0.00000000
